<svg xmlns="http://www.w3.org/2000/svg" width="902" height="557" style="shape-rendering:geometricPrecision;text-rendering:geometricPrecision;image-rendering:optimizeQuality;fill-rule:evenodd;clip-rule:evenodd">
  <path fill="#fefefe" d="M-.5-.5h902v557H-.5V-.5Z" style="opacity:1"/>
  <path fill="#020202" d="M420.5 39.5c54.901-2.22 108.901 3.613 162 17.5 23.063 6.366 44.063 16.7 63 31 8.747 7.33 14.58 16.497 17.5 27.5.099 49.012.766 98.012 2 147 25.481-.591 43.481 10.742 54 34 3.429 12.4 3.095 24.733-1 37-7.767 22.089-23.267 35.255-46.5 39.5-15.287 3.265-29.953 1.598-44-5-1.444-.781-2.777-.614-4 .5-23.244 37.413-54.077 66.746-92.5 88-2.009 2.969-2.842 6.302-2.5 10a132.853 132.853 0 0 1-.5 36c-2.75 6.419-7.25 11.252-13.5 14.5-25.266 13.73-52.266 19.063-81 16-24.85-1.682-47.017-10.182-66.5-25.5a20.64 20.64 0 0 1-2-6 1364.19 1364.19 0 0 0-3-45c-19.709-12.027-37.375-26.694-53-44a288.77 288.77 0 0 1-37.5-48c-30.732 17.248-59.232 14.248-85.5-9-17.107-20.768-20.107-43.435-9-68 12.774-18.302 30.274-26.135 52.5-23.5a9.454 9.454 0 0 0 1.5-2.5l1-142c2.735-13.074 9.235-23.907 19.5-32.5 18.104-13.384 38.104-23.05 60-29 35.757-10.339 72.091-16.506 109-18.5Z" style="opacity:1"/>
  <path fill="#fafafa" d="M420.5 64.5c60.786-4.102 119.786 4.065 177 24.5 14.257 5.204 26.09 13.704 35.5 25.5 2.406 6.346 1.739 12.346-2 18-11.028 10.675-23.861 18.508-38.5 23.5-44.78 14.74-90.78 21.574-138 20.5-47.829 1.265-94.829-4.235-141-16.5a212.473 212.473 0 0 1-36-15 74.398 74.398 0 0 1-15.5-13.5c-3.664-4.977-4.33-10.311-2-16a64.556 64.556 0 0 1 12.5-14.5c22.825-12.943 47.158-21.943 73-27 24.933-4.94 49.933-8.106 75-9.5Z" style="opacity:1"/>
  <path fill="#010101" d="M411.5 79.5a1346.93 1346.93 0 0 1 83 1.5c24.337 1.934 48.004 6.934 71 15 10.606 3.941 18.773 10.775 24.5 20.5 1.439 8.295-1.394 14.795-8.5 19.5-9.52 6.399-19.854 11.065-31 14-58.29 11.718-116.957 13.718-176 6a229.97 229.97 0 0 1-50-13 65.37 65.37 0 0 1-15.5-11.5c-4.179-6.46-4.512-13.127-1-20 7.777-8.806 17.277-14.973 28.5-18.5 24.745-6.678 49.745-11.178 75-13.5Z" style="opacity:1"/>
  <path fill="#040404" d="M102.5 81.5c28.239-2.307 48.073 9.36 59.5 35l6.5 6.5c30.591 12.354 43.758 34.854 39.5 67.5-5.883 20.556-18.383 35.723-37.5 45.5a145.222 145.222 0 0 1-16 5c-29.333.667-58.667.667-88 0-32.537-7.041-49.87-27.207-52-60.5 1.724-26.202 14.891-43.536 39.5-52 6.508-25.675 22.675-41.342 48.5-47Z" style="opacity:1"/>
  <path fill="#030303" d="M772.5 81.5c34.214-3.901 57.381 10.099 69.5 42a154.341 154.341 0 0 1 24.5 13.5c17.281 16.517 22.781 36.351 16.5 59.5-1.612 5.891-4.279 11.225-8 16a148.296 148.296 0 0 1-21.5 19.5 80.145 80.145 0 0 1-21 8c-31 .667-62 .667-93 0-26.55-4.84-44.05-20.007-52.5-45.5-6.38-25.524.453-46.69 20.5-63.5a73.495 73.495 0 0 1 21-7.5c7.29-21.961 21.956-35.961 44-42Z" style="opacity:1"/>
  <path fill="#fcfcfc" d="M102.5 105.5c24.358-1.481 38.525 9.853 42.5 34 1.5 2.167 3.333 4 5.5 5.5 25.108 2.451 36.274 16.284 33.5 41.5-2.65 10.993-8.816 19.493-18.5 25.5a48.99 48.99 0 0 1-13 4 1979.51 1979.51 0 0 1-89 0c-19.41-7.973-27.577-22.473-24.5-43.5 5.759-15.41 16.925-23.576 33.5-24.5l2.5-2.5c-.407-20.255 8.76-33.588 27.5-40Zm671 0c16.809-3.003 30.643 1.997 41.5 15a125.512 125.512 0 0 1 9 23 60.631 60.631 0 0 0 6.5 3.5c18.068 3.069 28.401 13.736 31 32-.905 14.866-7.571 26.199-20 34l-10 3c-32.344.729-64.677.396-97-1-14.919-6.607-23.419-18.107-25.5-34.5-1.53-14.441 3.97-25.275 16.5-32.5a166.041 166.041 0 0 1 21-4c1.526-13.72 7.526-25.053 18-34l9-4.5Z" style="opacity:1"/>
  <path fill="#060606" d="M743.5 152.5c12.623-1.132 18.457 4.535 17.5 17-3.595 9.887-10.095 12.72-19.5 8.5-6.936-6.323-7.769-13.49-2.5-21.5 1.397-1.57 2.897-2.904 4.5-4Z" style="opacity:1"/>
  <path fill="#070707" d="M70.5 154.5c13.125.604 18.291 7.27 15.5 20-5.068 7.368-11.568 8.868-19.5 4.5-7.716-9.842-6.383-18.009 4-24.5Z" style="opacity:1"/>
  <path fill="#040404" d="M142.5 154.5c12.037.198 17.537 6.198 16.5 18-5.539 8.807-12.706 10.307-21.5 4.5-4.634-5.111-5.134-10.611-1.5-16.5a53.864 53.864 0 0 1 6.5-6Z" style="opacity:1"/>
  <path fill="#060606" d="M820.5 153.5c12.033.707 16.867 7.04 14.5 19-3.747 7.619-9.58 9.785-17.5 6.5-10-9.829-9-18.329 3-25.5Z" style="opacity:1"/>
  <path fill="#222" d="M259.5 164.5a2500.447 2500.447 0 0 0-1 100 1278.812 1278.812 0 0 1 0-101c.607.124.94.457 1 1Z" style="opacity:1"/>
  <path fill="#fdfdfd" d="M259.5 164.5c33.923 18.582 70.256 29.416 109 32.5 67.44 8.745 134.44 6.078 201-8 22.423-5.527 43.756-13.693 64-24.5a7.248 7.248 0 0 1 2.5 2c.468 25.167.968 50.334 1.5 75.5a169.475 169.475 0 0 1-1.5 25.5c-34.498 11.998-47.165 35.664-38 71a141.229 141.229 0 0 1 5.5 9.5c-20.058 36.723-48.724 64.723-86 84a32.5 32.5 0 0 0-7 3 87.689 87.689 0 0 0-8 .5 46.626 46.626 0 0 0-1 9 503.208 503.208 0 0 1 2 33 69.063 69.063 0 0 1-1.5 16c-5.327 3.746-11.161 6.58-17.5 8.5-27.529 10.172-54.863 9.839-82-1a34.026 34.026 0 0 1-10.5-6.5 2144.439 2144.439 0 0 0-4-55 209.649 209.649 0 0 0-20.5-11.5c-25.795-19.462-48.629-41.962-68.5-67.5-7.434-8.24-8.434-17.24-3-27 5.88-22.336.38-41.169-16.5-56.5-5.915-4.623-12.581-7.623-20-9-.837-1.011-1.17-2.178-1-3.5-.332-33.504.002-66.838 1-100Z" style="opacity:1"/>
  <path fill="#040404" d="M773.5 168.5c4.762.033 9.429.699 14 2 14.429-4.068 18.929.932 13.5 15-7.155 7.164-15.322 8.664-24.5 4.5-6.126-5.368-7.959-11.868-5.5-19.5.995-.566 1.828-1.233 2.5-2Zm-672 1c7.854-.589 15.521.245 23 2.5 4.077 10.522.744 17.855-10 22-11.338 1.323-18.005-3.677-20-15 .524-4.565 2.857-7.732 7-9.5Z" style="opacity:1"/>
  <path fill="#030303" d="M537.5 221.5c21.223-.924 34.723 8.742 40.5 29 .977 20.88-8.523 34.38-28.5 40.5-20.906 2.135-34.74-6.698-41.5-26.5-3.023-16.27 2.477-28.77 16.5-37.5 4.241-2.349 8.575-4.182 13-5.5Zm-191 0c28.194-.64 41.694 13.027 40.5 41-7.109 21.806-21.943 31.306-44.5 28.5-19.254-8.342-27.087-22.842-23.5-43.5 2.251-9.672 7.751-16.839 16.5-21.5a196.459 196.459 0 0 0 11-4.5Z" style="opacity:1"/>
  <path fill="#f9f9f9" d="M352.5 234.5c14.222 1.386 18.722 8.72 13.5 22-7.299 6.895-14.299 6.561-21-1-4.539-9.552-2.039-16.552 7.5-21Zm186 1c7.938-1.779 13.771.887 17.5 8 1.294 7.911-1.539 13.744-8.5 17.5-7.628 1.068-12.794-2.099-15.5-9.5-1.938-7.111.229-12.444 6.5-16Z" style="opacity:1"/>
  <path fill="#030303" d="M409.5 263.5a304.824 304.824 0 0 0 34 5 186.475 186.475 0 0 0 35.5-5c7.731.397 12.398 4.397 14 12-.737 20.643-8.904 37.81-24.5 51.5-22.424 13.358-41.257 9.525-56.5-11.5-9.556-13.662-12.556-28.662-9-45 1.694-2.858 3.861-5.191 6.5-7Z" style="opacity:1"/>
  <path fill="#fcfcfc" d="M222.5 285.5c14.779-.971 28.779 1.862 42 8.5 14.353 10.789 16.853 23.955 7.5 39.5-10.383 11.766-23.549 17.433-39.5 17-27.429-1.262-40.262-15.596-38.5-43 1.62-6.396 5.12-11.562 10.5-15.5 5.801-3.097 11.801-5.264 18-6.5Zm426 0c10.874-.567 21.54.6 32 3.5 15.06 7.624 20.894 19.79 17.5 36.5-5.276 14.584-15.776 22.417-31.5 23.5-18.646 2.917-33.813-2.916-45.5-17.5-8.352-16.281-4.852-29.448 10.5-39.5 5.52-2.89 11.186-5.057 17-6.5Z" style="opacity:1"/>
  <path fill="#f9f9f9" d="M461.5 292.5h5c-1.632 11.497-8.299 17.497-20 18-10.701-.528-17.367-6.028-20-16.5a604.989 604.989 0 0 0 35-1.5Z" style="opacity:1"/>
  <path fill="#050505" d="M541.5 299.5c7.613-.453 14.947.714 22 3.5 5.78 5.323 6.614 11.49 2.5 18.5-5.171 4.295-11.171 5.962-18 5-6.199.537-12.032-.63-17.5-3.5-4.166-6.193-3.833-12.193 1-18a74.483 74.483 0 0 1 10-5.5Z" style="opacity:1"/>
  <path fill="#040404" d="M343.5 300.5c7.844-.703 15.177.797 22 4.5 4.276 4.892 5.11 10.392 2.5 16.5-1.731 2.117-3.898 3.617-6.5 4.5-8 .667-16 .667-24 0-6.933-3.372-9.433-8.872-7.5-16.5 3.453-4.638 7.953-7.638 13.5-9Z" style="opacity:1"/>
  <path fill="#030303" d="M442.5 414.5c21.488-.689 35.321 9.311 41.5 30 1.622 9.181.289 17.847-4 26-17.318 24.247-37.985 27.581-62 10-16.185-21.996-13.685-41.496 7.5-58.5 5.372-3.393 11.038-5.893 17-7.5Z" style="opacity:1"/>
  <path fill="#fafafa" d="M442.5 438.5c8.231-.543 14.731 2.457 19.5 9 1.842 9.149-1.324 15.982-9.5 20.5-15.387 2.615-22.553-3.885-21.5-19.5a51.46 51.46 0 0 1 11.5-10Z" style="opacity:1"/>
</svg>
